<svg width="1448" height="966" viewBox="0 0 1448 966" fill="none" xmlns="http://www.w3.org/2000/svg">
<g id="404-26">
<rect width="1448" height="966" rx="50" fill="#FFD3D3"/>
<g id="Frame" clip-path="url(#clip0_6_576)">
<g id="Group">
<path id="Vector" d="M751.2 395.8C745.5 408.2 744.3 422.3 744.8 435.9C745.3 451.6 747.9 467.6 755.5 481.5C763.1 495.3 776.2 506.7 791.8 509.2C806.8 511.6 822.4 505.5 833.5 495.1C844.6 484.7 851.5 470.4 855.3 455.7C861 433.7 859.7 408.9 847 390.1C823.9 356 768.9 357.6 751.2 395.8Z" fill="white"/>
<path id="Vector_2" d="M849.8 455.6C846.4 468.7 840.3 481.3 830.4 490.6C820.6 499.8 806.7 505.3 793.3 503.1C782.2 501.3 772.4 494.4 765.6 485.4C771.9 491.7 779.8 496.2 788.5 497.6C801.8 499.8 815.7 494.3 825.6 485.1C835.5 475.9 841.6 463.2 845 450.1C850 430.6 848.9 408.6 837.6 391.9C837.2 391.3 836.7 390.6 836.3 390C838.6 392.2 840.6 394.7 842.5 397.4C853.7 414 854.9 436 849.8 455.6Z" fill="#E6E6E6"/>
<path id="Vector_3" d="M798.5 512C796.1 512 793.8 511.8 791.4 511.4C776.2 508.9 762 498.1 753.5 482.5C746.7 470.2 743.1 454.9 742.5 435.9C741.9 418.8 744 405.7 749.1 394.7C757.4 376.8 774.5 365.2 795 363.5C816.6 361.8 837.2 371.4 848.9 388.6C860.9 406.3 864.1 430.9 857.6 456.1C853.3 472.9 845.5 486.9 835.1 496.6C824.6 506.5 811.4 512 798.5 512ZM753.3 396.7C748.5 407 746.6 419.4 747.1 435.8C747.7 454.1 751.1 468.6 757.5 480.3C765.4 494.7 778.3 504.6 792.1 506.8C805.6 509 820.5 504 831.9 493.3C841.6 484.2 848.9 470.9 853 455C859.2 431.1 856.2 407.9 845 391.3C834.3 375.5 815.3 366.6 795.4 368.2C776.6 369.8 760.9 380.4 753.3 396.7Z" fill="#333333"/>
<path id="Vector_4" d="M596 390.9C588 404.4 584.5 420.2 583 435.9C581 456.6 583.5 480 599 493.9C616.5 509.5 645.8 506.2 663.2 490.4C680.6 474.6 687.3 449.7 686.1 426.2C685.3 410.3 681 394.2 670.9 381.9C648.1 354.1 613.1 362.2 596 390.9Z" fill="white"/>
<path id="Vector_5" d="M667.6 477.2C665.1 480.9 662.2 484.3 658.9 487.3C643.6 501.2 617.8 504.1 602.4 490.3C588.7 478.1 586.6 457.5 588.3 439.3C589.6 425.5 592.7 411.6 599.7 399.7C601.5 396.6 603.6 393.8 605.8 391.3C605.3 392.1 604.8 392.9 604.3 393.7C597.2 405.6 594.2 419.5 592.9 433.3C591.2 451.5 593.3 472.1 607 484.3C622.4 498 648.2 495.1 663.5 481.3C665 480 666.3 478.6 667.6 477.2Z" fill="#E6E6E6"/>
<path id="Vector_6" d="M627.7 506.5C616.5 506.5 605.6 502.9 597.5 495.6C580.4 480.3 578.9 454.6 580.7 435.6C582.5 416.8 586.8 401.7 594 389.6C603.4 373.8 618.4 363.6 634.2 362.4C648.6 361.3 662.3 367.7 672.8 380.3C682.1 391.7 687.6 407.5 688.5 426C689.9 453.1 681.3 477.1 664.8 492C654.3 501.7 640.8 506.5 627.7 506.5ZM598.1 392.1C591.3 403.6 587.1 418 585.4 436.1C583.7 454 585 478.2 600.6 492.1C617.9 507.5 646.1 502.8 661.7 488.7C677.1 474.8 685.2 452.1 683.8 426.4C683.2 414.2 680.1 396.8 669.1 383.4C659.7 371.9 647.4 366.2 634.5 367.1C620.3 368.3 606.6 377.6 598.1 392.1Z" fill="#333333"/>
<path id="Vector_7" d="M638.4 455.6C645.3 459.8 654.5 459.4 661.4 455.2C678.4 444.8 665.4 421.4 648.4 421.1C629.8 420.6 622.1 445.7 638.4 455.6Z" fill="#333333"/>
<path id="Vector_8" d="M782 455.6C788.9 459.8 798.1 459.4 805 455.2C822 444.8 809 421.4 792 421.1C773.4 420.6 765.7 445.7 782 455.6Z" fill="#333333"/>
<path id="Vector_9" d="M812.4 724.7C808.8 725.2 805.1 725.4 801.5 725.5C780.5 726 759.5 719.9 738.9 714.3C736.3 713.6 733.6 712.9 730.9 712.2C715 708 698.4 703.5 682.2 702.7C672.8 702.2 663.5 702.9 654.5 705.5C653 706 651.4 706.5 649.9 707.1C648.5 669.9 654.1 632.4 666.3 597.3C669.8 587.2 673.9 577.3 679.4 568.3C682 564.1 685 560.1 688.4 556.5C699 545.1 714.4 537.2 729.9 539C748.2 541.1 762.3 555.5 772.7 571.2C773.9 573 775 574.8 776.1 576.6C803.1 620.6 815.9 673.1 812.4 724.7Z" fill="#333333"/>
<path id="Vector_10" d="M772.8 571.1C772.2 571.3 771.5 571.6 770.8 571.8C742 581.8 709.6 580.8 681.5 569.1C680.9 568.9 680.3 568.6 679.7 568.4C679.6 568.4 679.5 568.3 679.4 568.3C679.5 568.1 679.6 567.9 679.7 567.8C682.3 563.8 685.1 560 688.4 556.5C699 545.1 714.4 537.2 729.9 539C748.3 541 762.4 555.4 772.8 571.1Z" fill="white"/>
<path id="Vector_11" d="M782.6 699.1C778.4 706.5 769.4 709.5 761.1 711.2C753.8 712.7 746.3 713.8 738.9 714.2C736.3 713.5 733.6 712.8 730.9 712.1C715 707.9 698.4 703.4 682.2 702.6C675 696.2 670.5 687.2 669.4 677C668.9 672.5 669.1 667.8 670.1 662.9C672.1 652.9 681.5 643.6 691.5 645.5C700 647.2 705.7 655.9 714.2 657.3C727.7 659.6 737.5 643 751.1 641.9C758.3 641.3 765.2 645.4 769.9 650.9C774.6 656.4 777.4 663.3 780.1 669.9C782.6 676.1 785.1 683.1 785 689.7C785 693.1 784.3 696.3 782.6 699.1Z" fill="#ED373E"/>
<path id="Vector_12" opacity="0.21" d="M775.9 664.1C775.5 663.6 775.1 663.2 774.7 662.7C769.5 657.1 761.9 652.9 754 653.5C739.1 654.4 728.5 670.9 713.7 668.5C704.4 667 698 658.2 688.7 656.4C683.7 655.5 678.8 656.9 674.8 659.6C678.9 653.7 685.5 649.7 692.5 651C701 652.7 706.8 661.4 715.2 662.8C728.7 665.1 738.5 648.5 752.1 647.5C759.3 646.9 766.2 651 770.9 656.5C772.8 658.9 774.5 661.4 775.9 664.1Z" fill="white"/>
<path id="Vector_13" d="M688.5 238C690 243.2 691.2 248.4 692.2 253.7C694.2 264.2 688.2 274.5 678.2 278.2C665.4 283 652.9 288.3 639.7 292.2C626.3 296.2 612.6 300.4 601 308.2C589.4 316.1 580 328.3 579 342.3C569 326.4 574.9 305 588.2 291.7C601.5 278.4 619.8 271.7 637.4 265.3C655.1 258.9 675.7 251.7 688.5 238Z" fill="#333333"/>
<path id="Vector_14" d="M758.8 238C757.5 242.6 756.4 247.3 755.4 252C753.2 263.3 759.3 274.6 770.1 278.6C782.5 283.3 794.8 288.4 807.6 292.2C821 296.2 834.7 300.4 846.3 308.2C857.9 316 867.4 328.3 868.3 342.3C878.3 326.4 872.4 305 859.2 291.7C845.9 278.4 827.6 271.7 810 265.3C792.3 258.9 771.7 251.7 758.8 238Z" fill="#333333"/>
<path id="Vector_15" d="M772.8 571.1C772.2 571.3 771.5 571.6 770.8 571.8C758.4 562.2 743 556.6 727.2 556C711 555.4 694.7 560.1 681.5 569.2C680.9 569.6 680.3 570 679.7 570.4C679.7 569.8 679.7 569.1 679.7 568.4C679.7 568.2 679.7 568 679.7 567.7C682.3 563.7 685.1 559.9 688.4 556.4C699 545 714.4 537.1 729.9 538.9C748.3 541 762.4 555.4 772.8 571.1Z" fill="#E6E6E6"/>
<path id="Vector_16" d="M801.5 725.6C780.5 726.1 759.5 720 738.9 714.4C736.2 713.7 733.6 713 730.9 712.3C715 708.1 698.4 703.7 682.2 702.8C672.8 702.3 663.5 703 654.6 705.6C655.3 698.9 657.7 691.8 658.7 685.7C659.3 682.4 660.1 678.5 663.2 677.1C665.2 676.2 667.4 676.5 669.5 677.2C670.1 677.4 670.7 677.6 671.3 677.8C707.6 690.4 746.9 694.6 785.1 690C787.7 689.7 790.3 689.4 792.9 689C793.5 688.9 794.1 689.5 794.6 690.5C798 696.5 801.1 719.5 801.5 725.6Z" fill="white"/>
<path id="Vector_17" d="M801.5 725.6C780.5 726.1 759.5 720 738.9 714.4C736.2 713.7 733.6 713 730.9 712.3C715 708.1 698.4 703.7 682.2 702.8C672.8 702.3 663.5 703 654.6 705.6C655.3 698.9 657.7 691.8 658.7 685.7C659.9 685.3 661.3 685.1 662.6 685.2C665.3 685.3 667.8 686.3 670.3 687.2C703.2 699.2 738.8 706.5 773.5 701.4C777.9 700.8 782.3 699.9 786.3 698C789.7 696.3 792.9 693.8 794.7 690.5C798 696.5 801.1 719.5 801.5 725.6Z" fill="#E6E6E6"/>
<path id="Vector_18" d="M799.2 727.9C779.7 727.9 760.3 722.6 741.4 717.4L729.3 714.1C713.8 710 697.7 705.8 682.1 704.9C672.2 704.3 663.4 705.2 655.2 707.7C653.5 708.2 652.1 708.7 650.8 709.2L647.7 710.4L647.6 707.1C646.2 669.8 651.9 631.6 664.1 596.4C668.3 584.1 672.6 574.8 677.5 566.9C680.4 562.3 683.5 558.3 686.8 554.7C699 541.6 715.3 534.7 730.3 536.4C746.4 538.3 761.4 549.4 774.8 569.6C776 571.4 777.2 573.2 778.3 575.1C805.4 619.6 818.3 672.7 814.8 724.7L814.7 726.6L812.8 726.9C809.5 727.4 805.8 727.7 801.6 727.7C800.8 727.9 800 727.9 799.2 727.9ZM676.5 700.2C678.4 700.2 680.4 700.3 682.4 700.4C698.5 701.2 714.8 705.5 730.6 709.7L742.8 713C762.1 718.3 782 723.7 801.6 723.3C804.8 723.2 807.7 723 810.4 722.7C813.4 672.3 800.7 620.9 774.5 577.7C773.4 575.9 772.3 574.2 771.1 572.4C758.5 553.4 744.6 542.9 730 541.2C716.4 539.7 701.6 545.9 690.4 558C687.3 561.4 684.4 565.1 681.7 569.5C677 577.1 672.9 586.1 668.8 598C657.2 631.6 651.5 668.1 652.5 703.8C653 703.6 653.6 703.4 654.2 703.3C660.9 701.2 668.3 700.2 676.5 700.2Z" fill="#333333"/>
<g id="Group_2">
<path id="Vector_19" d="M637.7 449.7H630.1C626.5 449.7 623.5 446.7 623.5 443.1C623.5 439.5 626.5 436.5 630.1 436.5H637.7C641.3 436.5 644.3 439.5 644.3 443.1C644.3 446.7 641.4 449.7 637.7 449.7Z" fill="white"/>
</g>
<g id="Group_3">
<path id="Vector_20" d="M781.9 449.7H774.3C770.7 449.7 767.7 446.7 767.7 443.1C767.7 439.5 770.7 436.5 774.3 436.5H781.9C785.5 436.5 788.5 439.5 788.5 443.1C788.5 446.7 785.6 449.7 781.9 449.7Z" fill="white"/>
</g>
</g>
</g>
</g>
<defs>
<clipPath id="clip0_6_576">
<rect width="299.4" height="489.9" fill="white" transform="translate(574 238)"/>
</clipPath>
</defs>
</svg>
