<svg width="1448" height="966" viewBox="0 0 1448 966" fill="none" xmlns="http://www.w3.org/2000/svg">
<g id="404-28">
<rect width="1448" height="966" rx="50" fill="#B7DFFF"/>
<g id="Frame" clip-path="url(#clip0_6_650)">
<g id="Group">
<path id="Vector" d="M776 383.6C788.8 377.2 804.4 377.8 817.7 383.1C831 388.4 842.2 398.1 851.5 409C858.1 416.9 864.1 425.9 865.5 436.1C867.6 452.2 857.8 467.5 845.9 478.4C835.4 488 822.5 495.5 808.5 497.6C792.9 500 780.2 494.8 770.6 485.6C759.7 475.1 752.9 459.3 750.5 443.5C749.8 439.2 749.5 434.9 749.5 430.7C749.6 411.8 759.1 392.1 776 383.6Z" fill="white"/>
<path id="Vector_2" d="M841.9 464.6C847.1 457.2 850.4 448.5 849.2 439.6C848.1 431.1 843.1 423.7 837.6 417.2C829.9 408.2 820.6 400.2 809.6 395.8C798.6 391.4 785.7 390.9 775.1 396.2C771.9 397.8 769 399.9 766.5 402.3C770.1 396.9 774.9 392.3 780.7 389.4C791.3 384.1 804.2 384.6 815.2 389C826.2 393.4 835.5 401.4 843.2 410.4C848.7 416.9 853.6 424.4 854.7 432.8C856.4 444.5 850.2 455.9 841.9 464.6Z" fill="#E6E6E6"/>
<path id="Vector_3" d="M801.1 500.6C789.1 500.6 778.1 496.1 769 487.3C758.4 477 750.8 461.2 748.2 443.8C747.5 439.6 747.2 435.1 747.2 430.7C747.2 409.6 758.4 389.8 774.9 381.5C787.6 375.2 803.5 374.9 818.5 380.9C830.7 385.8 842.4 394.7 853.2 407.5C858.7 414 866.1 424 867.7 435.8C869.6 450.5 862.2 466.6 847.3 480.2C835.3 491.1 822 498 808.7 500C806.3 500.4 803.7 500.6 801.1 500.6ZM777.1 385.7C762.1 393.2 752 411.3 752 430.7C752 434.9 752.3 439.1 752.9 443.1C755.3 459.5 762.4 474.4 772.3 483.9C782.4 493.6 794.4 497.4 808.2 495.3C823.8 492.9 836.5 483.8 844.3 476.6C858 464.1 864.9 449.4 863.2 436.3C861.8 425.7 854.9 416.4 849.8 410.4C839.5 398.3 828.4 389.8 816.9 385.2C803.3 379.8 788.4 380 777.1 385.7Z" fill="#333333"/>
<path id="Vector_4" d="M598.3 381.3C607.7 377.2 618.5 377.6 628.7 379.2C642.9 381.5 656.9 386.1 668.4 394.7C679.8 403.3 688.4 416.4 689.6 430.6C691.1 449.5 679.2 467.8 663 477.6C646 488 623.2 493.1 604.4 487.9C591.8 484.4 581.1 476.2 575.2 461.9C574 459.1 573.1 456.2 572.4 453.2C569.8 442.4 570.2 430.9 572.3 420C575.4 404.2 583.5 387.9 598.3 381.3Z" fill="white"/>
<path id="Vector_5" d="M665.7 465.3C673.6 456.8 678.5 445.7 677.6 434.2C676.6 422.1 669.3 411.1 659.7 403.8C650 396.5 638.1 392.6 626.2 390.7C617.6 389.3 608.4 389 600.5 392.5C598.5 393.4 596.7 394.4 595 395.7C598 392.2 601.6 389.3 605.9 387.4C613.9 383.9 623 384.2 631.6 385.6C643.6 387.5 655.5 391.4 665.1 398.7C674.8 406 682 417 683 429.1C684.2 443.1 676.7 456.6 665.7 465.3Z" fill="#E6E6E6"/>
<path id="Vector_6" d="M620.4 492.3C614.6 492.3 609 491.6 603.8 490.1C589.4 486.1 578.8 476.6 573 462.8C571.8 459.9 570.8 456.8 570.1 453.7C567.6 443.4 567.6 431.9 570 419.5C573.9 399.8 583.9 385.1 597.4 379.1C608.4 374.3 620.8 375.5 629.1 376.8C645.6 379.4 659.3 384.8 669.8 392.7C682.7 402.5 690.8 416.2 691.9 430.3C693.3 448.8 682.2 468.6 664.2 479.5C650.6 487.9 634.9 492.3 620.4 492.3ZM599.2 383.4C587.1 388.8 578.1 402.3 574.5 420.5C572.2 432.2 572.3 443 574.6 452.7C575.3 455.5 576.2 458.4 577.3 461.1C582.5 473.6 592.1 482.1 605 485.7C621.8 490.4 644.1 486.4 661.7 475.7C678.3 465.6 688.5 447.6 687.2 430.8C686.2 418.2 678.6 405.4 666.9 396.5C657 389 644 384 628.3 381.5C620.5 380.3 609.1 379.1 599.2 383.4Z" fill="#333333"/>
<path id="Vector_7" d="M750.6 443.5C753.9 442.2 757.4 441.7 760.9 442.1C771.9 443.6 780.6 454.1 780.8 465.2C780.9 472.8 776.8 480.9 770.6 485.7C759.8 475.1 752.9 459.4 750.6 443.5Z" fill="#333333"/>
<path id="Vector_8" d="M572.4 453.3C575.2 450.3 578.9 448.1 582.9 447.3C593.7 445 605.5 451.9 609.4 462.3C612.5 470.6 610.5 481.4 604.4 488C591.8 484.5 581.1 476.3 575.2 462C574 459.1 573.1 456.2 572.4 453.3Z" fill="#333333"/>
<path id="Vector_9" d="M744 632.1C742.6 642.3 740.3 652.8 732.7 661.6C729.7 665.1 725.9 668.1 721.5 670.6C707.5 678.9 687.8 682.3 669.6 679.9C647.4 677 614.1 661.4 612.3 643.9C612.1 642.2 612.2 640.5 612.4 638.7C613.8 628.7 621.3 617 625.2 608.3C631 595.2 637.8 582.3 645.4 569.7C648 565.4 650.7 561.2 653.8 557C659.2 549.8 665.8 543.1 674.8 538C688.9 530 710.4 527.2 725 534.7C735.6 540.2 740.1 549.3 742.4 558.6C743 561.2 743.5 563.9 743.8 566.4C747 588.3 747.1 610.3 744 632.1Z" fill="#333333"/>
<path id="Vector_10" d="M721.6 670.5C707.6 678.8 687.9 682.2 669.7 679.8C647.5 676.9 614.2 661.3 612.4 643.8C612.2 642.1 612.3 640.4 612.5 638.6C622.4 635.2 632.6 632.7 640 631.1C662.5 626.5 689.1 628.1 706 639.5C717.8 647.5 723 659.2 721.6 670.5Z" fill="#ED373E"/>
<path id="Vector_11" d="M742.5 558.7C713 558.2 683.5 557.7 653.9 557.1C657.9 551.7 662.6 546.7 668.5 542.3C670.5 540.8 672.7 539.4 675 538.1C689.1 530.1 710.6 527.3 725.2 534.8C730.2 537.4 733.8 540.7 736.5 544.6C739.5 548.9 741.3 553.8 742.5 558.7Z" fill="white"/>
<path id="Vector_12" d="M914.4 399.4C895.2 379 869.8 364.5 842.6 358.2C828.9 355.1 814.9 353.9 801.4 350.2C787.9 346.5 774.5 339.7 766.7 328.1C758.9 316.5 758.4 299.2 768.4 289.4C783.2 306 806.1 314.7 827.6 320.3C849.2 325.9 871.8 331 889.2 345C905.3 357.9 913.7 378.7 914.4 399.4Z" fill="#333333"/>
<path id="Vector_13" d="M734.6 544.6C712.4 539.1 689.1 538.3 666.6 542.4C668.6 540.9 670.8 539.5 673.1 538.2C687.2 530.2 708.7 527.4 723.3 534.9C728.3 537.4 731.9 540.8 734.6 544.6Z" fill="#E6E6E6"/>
<path id="Vector_14" d="M534 392.9C553.2 372.6 578.6 358 605.8 351.8C619.5 348.7 633.5 347.5 647 343.8C660.5 340.1 673.9 333.3 681.7 321.7C689.5 310.1 690 292.8 680 283C665.2 299.6 642.3 308.3 620.8 313.9C599.2 319.5 576.6 324.6 559.2 338.6C543.1 351.5 534.7 372.3 534 392.9Z" fill="#333333"/>
<path id="Vector_15" d="M681 682.9C677.1 682.9 673.2 682.7 669.4 682.2C645.9 679.1 612 663.1 610.1 644.2C609.9 642.4 609.9 640.5 610.2 638.4C611.3 630.8 615.6 622.5 619.4 615.1C620.8 612.4 622.1 609.8 623.2 607.4C629.1 594.3 635.9 581.2 643.5 568.6C646.4 563.7 649.2 559.5 652 555.7C658.6 547 665.5 540.7 673.8 536.1C687.8 528.2 710.2 524.5 726.2 532.7C735.9 537.7 741.8 545.7 744.8 558.1C745.4 560.7 745.9 563.4 746.3 566.2C749.4 588.2 749.5 610.4 746.4 632.3C745 642.8 742.5 653.8 734.6 663C731.4 666.7 727.5 669.9 722.9 672.5C711.5 679.2 696.2 682.9 681 682.9ZM705.2 532.8C694.6 532.8 683.8 535.8 676.1 540.2C668.4 544.5 662 550.4 655.8 558.6C653.1 562.2 650.4 566.3 647.5 571.1C640 583.6 633.3 596.5 627.5 609.4C626.4 611.8 625 614.5 623.6 617.3C620 624.3 615.9 632.3 614.9 639.2C614.6 640.9 614.6 642.4 614.8 643.8C616.5 660 649.2 675 670.1 677.7C687.8 680 707.1 676.6 720.5 668.7C724.7 666.3 728.2 663.4 731.1 660.2C737.8 652.4 740.3 643.3 741.8 632C744.8 610.6 744.7 588.8 741.7 567.2C741.4 564.6 740.9 562 740.3 559.6C737.6 548.7 732.5 541.5 724.1 537.2C718.5 534.1 711.9 532.8 705.2 532.8Z" fill="#333333"/>
<g id="Group_2">
<path id="Vector_16" d="M613.8 476.9H606.2C602.6 476.9 599.6 473.9 599.6 470.3C599.6 466.7 602.6 463.7 606.2 463.7H613.8C617.4 463.7 620.4 466.7 620.4 470.3C620.4 474 617.4 476.9 613.8 476.9Z" fill="white"/>
</g>
<g id="Group_3">
<path id="Vector_17" d="M779.9 474H772.3C768.7 474 765.7 471 765.7 467.4C765.7 463.8 768.7 460.8 772.3 460.8H779.9C783.5 460.8 786.5 463.8 786.5 467.4C786.5 471 783.5 474 779.9 474Z" fill="white"/>
</g>
<path id="Vector_18" opacity="0.23" d="M717.3 665.1C713.6 650.1 701.2 637.6 686.3 633.7C677.4 631.4 668.1 632 659 633.1C645.2 634.7 631.5 637.3 618.1 641C636 639 653.5 637.5 671.3 640.2C689.1 642.9 706.6 650.6 717.3 665.1Z" fill="white"/>
</g>
</g>
</g>
<defs>
<clipPath id="clip0_6_650">
<rect width="380.4" height="399.9" fill="white" transform="translate(534 283)"/>
</clipPath>
</defs>
</svg>
