<svg width="1448" height="966" viewBox="0 0 1448 966" fill="none" xmlns="http://www.w3.org/2000/svg">
<g id="404-27">
<g clip-path="url(#clip0_6_615)">
<rect width="1448" height="966" rx="50" fill="#FFDC93"/>
<rect id="Rectangle 3" width="1448" height="966" fill="#2D2D2D"/>
<path id="Vector" fill-rule="evenodd" clip-rule="evenodd" d="M692.147 204.278L1383.51 -18.4528L1639 50L892.544 666.527C613.161 900.055 311.117 327.733 692.147 204.278Z" fill="url(#paint0_linear_6_615)"/>
<g id="Frame" clip-path="url(#clip1_6_615)">
<g id="Group">
<g id="Group_2">
<path id="Vector_2" d="M862.3 484C847 500.4 821.8 506.9 800.7 499.4C783.6 493.3 770.1 478.6 763.9 461.5C758.8 447.4 758.3 431.9 761.6 417.2C762.3 414.1 763.1 411 764.1 408C773 409.3 782 410.7 791 412.1C803.7 414.1 816.6 416 829.4 417.7C844.9 419.7 860.3 421.1 875.5 421.4C877.1 426.1 878 431 878.4 435.9C879.9 453.2 874.3 471.2 862.3 484Z" fill="white"/>
</g>
<g id="Group_3">
<path id="Vector_3" d="M872.2 451.2C871 460 867.5 468.4 862 475.5C850 490.8 828.4 498.8 809.1 494.5C793.4 491 780.2 479.9 773.1 466.1C767.3 454.7 765.4 441.6 766.9 428.9C767.2 426.2 767.7 423.5 768.3 420.9C768.5 420.9 768.7 420.9 768.8 420.9C767.4 433.4 769.3 446.2 775.1 457.4C782.2 471.2 795.4 482.3 811.1 485.8C830.4 490.1 852 482.1 864 466.8C867.7 462.1 870.4 456.8 872.2 451.2Z" fill="#E6E6E6"/>
</g>
<path id="Vector_4" d="M878.5 435.8C838.8 437.3 798.8 430.9 761.6 417.1C762.3 414 763.1 410.9 764.1 407.9C773 409.2 782 410.6 791 412C803.7 414 816.6 415.9 829.4 417.6C844.9 419.6 860.3 421 875.5 421.3C877.1 426 878.1 430.9 878.5 435.8Z" fill="#E6E6E6"/>
<path id="Vector_5" d="M901.3 423.2C882.8 404.9 857.2 394 831.1 393.5C817.4 393.2 803.7 395.7 790 396C776.3 396.4 761.8 394.4 750.8 386.2C739.8 378 733.3 362.5 739.1 350C757.6 360.7 781.5 361.4 802.8 362.7C824.1 364 846 364.9 865.5 373.6C884.9 382.3 902.2 401.8 901.3 423.2Z" fill="#212121"/>
<path id="Vector_6" d="M805.4 450C784.7 447.5 781.5 424.9 791.1 412.1C803.8 414.1 816.7 416 829.5 417.7C834.3 432.2 825.4 452.4 805.4 450Z" fill="#212121"/>
<g id="Group_4">
<path id="Vector_7" d="M683.3 439.5C683.2 448 681.8 456.4 678.9 464.3C672.7 481.4 659.2 496.1 642.1 502.2C621 509.8 595.8 503.2 580.5 486.8C568.7 474.3 563 456.6 564.3 439.4C564.7 434.3 565.6 429.2 567.3 424.3C603.9 423.5 642.5 416.2 678.7 410.9C681.8 420 683.4 429.8 683.3 439.5Z" fill="white"/>
</g>
<g id="Group_5">
<path id="Vector_8" d="M674.6 456.5C674 460.2 673 463.8 671.5 467.3C666 480.8 654.1 492.4 639 497.3C620.3 503.3 598 498.1 584.5 485.2C574.1 475.3 569 461.2 570.2 447.6C570.5 443.7 571.3 439.8 572.7 436.1C572.5 437.2 572.4 438.3 572.3 439.4C571 453 576 467 586.5 476.9C600 489.9 622.3 495.1 641 489.1C656.1 484.2 668 472.7 673.5 459.1C673.9 458.2 674.3 457.4 674.6 456.5Z" fill="#E6E6E6"/>
</g>
<path id="Vector_9" d="M683.3 439.5C671.5 440.4 659.5 439.2 647.7 437.4C632 435.2 616.4 432 600.6 431.9C588.1 431.8 575.4 433.9 564.3 439.4C564.7 434.3 565.6 429.2 567.3 424.3C603.9 423.5 642.5 416.2 678.7 410.9C681.8 420 683.4 429.8 683.3 439.5Z" fill="#E6E6E6"/>
<path id="Vector_10" d="M633.5 454.4C663.2 450.8 656.9 405.8 628.3 407.7C598.4 409.7 603.2 458 633.5 454.4Z" fill="#212121"/>
<path id="Vector_11" d="M800 614.5C800 614.5 742.4 597.5 730.8 596.6C703.1 594.5 672 606.7 644.6 614.5C644.8 614.4 658.8 582.4 680.9 560.8C686.1 555.7 691.8 551.2 697.8 547.8C719.4 535.7 744.2 536.6 764.4 555.3C765.3 556.1 766.1 556.9 767 557.8C785.5 577 800 614.5 800 614.5Z" fill="#212121"/>
<path id="Vector_12" d="M767 557.8C766.9 557.8 766.8 557.8 766.6 557.8C738 558.2 709.4 559.2 680.9 560.8C682.5 559.2 684.2 557.7 685.9 556.3C689.7 553 693.7 550.2 697.9 547.8C719.5 535.7 744.3 536.6 764.5 555.3C765.3 556 766.2 556.9 767 557.8Z" fill="white"/>
<g id="Group_6">
<path id="Vector_13" d="M617.1 446.9H609.5C605.9 446.9 602.9 443.9 602.9 440.3C602.9 436.7 605.9 433.7 609.5 433.7H617.1C620.7 433.7 623.7 436.7 623.7 440.3C623.7 443.9 620.7 446.9 617.1 446.9Z" fill="white"/>
</g>
<g id="Group_7">
<path id="Vector_14" d="M795.8 440.3H788.2C784.6 440.3 781.6 437.3 781.6 433.7C781.6 430.1 784.6 427.1 788.2 427.1H795.8C799.4 427.1 802.4 430.1 802.4 433.7C802.4 437.3 799.4 440.3 795.8 440.3Z" fill="white"/>
</g>
<path id="Vector_15" d="M819 504.8C812.5 504.8 806 503.7 799.9 501.6C782.7 495.4 768.4 480.7 761.7 462.3C755.6 445.5 755.7 425.9 761.9 407.2C762.3 406.1 763.3 405.5 764.5 405.6C771.6 406.6 778.9 407.8 786 408.9L791.5 409.8C803.1 411.6 816.5 413.7 829.8 415.4C847.5 417.6 862.1 418.8 875.6 419.1C876.6 419.1 877.5 419.8 877.8 420.7C885.2 442.9 879.7 469 864.1 485.7C852.5 497.9 835.6 504.8 819 504.8ZM765.8 410.5C760.5 427.6 760.6 445.4 766.1 460.6C772.3 477.8 785.6 491.4 801.5 497.1C821.5 504.3 845.8 498.2 860.6 482.3C874.7 467.2 879.9 443.8 873.8 423.5C860.5 423.1 846.3 422 829.2 419.8C815.8 418.1 802.3 416 790.7 414.2L785.2 413.3C778.8 412.5 772.2 411.5 765.8 410.5Z" fill="#212121"/>
<path id="Vector_16" d="M623.8 507.7C607.2 507.7 590.3 500.8 578.8 488.5C563.2 471.8 557.7 445.7 565.1 423.5C565.4 422.6 566.3 421.9 567.3 421.9C596.2 421.3 626.4 416.5 655.7 412C663.2 410.8 670.9 409.6 678.4 408.5C679.5 408.3 680.6 409 681 410.1C687.3 428.8 687.3 448.3 681.2 465.2C674.5 483.6 660.2 498.3 643 504.5C636.8 506.7 630.3 507.7 623.8 507.7ZM569 426.5C562.9 446.8 568.1 470.2 582.2 485.3C597 501.2 621.4 507.2 641.3 500.1C657.2 494.4 670.4 480.7 676.7 463.6C682.3 448.3 682.4 430.6 677 413.5C670.1 414.5 663.1 415.6 656.3 416.7C627.5 421.1 597.7 425.8 569 426.5Z" fill="#212121"/>
<path id="Vector_17" d="M546 440.3C567 425 594.1 418.1 619.9 421.5C633.5 423.3 646.6 427.8 660.2 430.2C673.7 432.6 688.3 432.8 700.5 426.5C712.7 420.1 721.4 405.7 717.6 392.5C697.7 400.3 674 397.3 652.7 395.4C631.4 393.5 609.6 391 589.1 396.7C568.4 402.4 548.4 419.1 546 440.3Z" fill="#212121"/>
<path id="Vector_18" d="M767 557.8C766.9 557.8 766.8 557.8 766.6 557.8C754.2 551.5 740.3 548 726.4 547.7C712.5 547.4 698.5 550.4 685.9 556.3C689.7 553 693.7 550.2 697.9 547.8C719.5 535.7 744.3 536.6 764.5 555.3C765.3 556 766.2 556.9 767 557.8Z" fill="#E6E6E6"/>
<path id="Vector_19" d="M644.6 616.8C643.6 616.8 642.6 616.1 642.4 615.1C642.2 614.4 642.3 613.7 642.7 613.2C642.8 613 643 612.7 643.2 612.2C652.3 593.5 671.2 559.9 696.7 545.8C720.5 532.6 746.4 535.5 766 553.6C785.9 572 801.5 612 802.2 613.7C802.5 614.5 802.3 615.5 801.7 616.1C801.1 616.8 800.2 617 799.3 616.8C798.7 616.6 741.8 599.9 730.5 599C708.7 597.3 684.7 604.7 661.6 611.8C655.9 613.6 650.5 615.2 645.2 616.7C645.1 616.8 644.9 616.8 644.6 616.8ZM724.2 594.1C726.5 594.1 728.7 594.2 731 594.4C740.9 595.2 782 606.9 796.1 611C791.4 600 778.2 571.2 762.9 557.1C744.6 540.2 721.3 537.6 699 550C676.1 562.7 658.5 592.3 649.1 611C652.8 609.9 656.5 608.8 660.3 607.6C681.6 600.8 703.5 594.1 724.2 594.1Z" fill="#212121"/>
</g>
</g>
</g>
</g>
<defs>
<linearGradient id="paint0_linear_6_615" x1="1536.32" y1="90.4186" x2="636.175" y2="672.689" gradientUnits="userSpaceOnUse">
<stop offset="0.104167" stop-color="#FFDC93" stop-opacity="0"/>
<stop offset="0.791667" stop-color="#FFDC93"/>
</linearGradient>
<clipPath id="clip0_6_615">
<rect width="1448" height="966" rx="50" fill="white"/>
</clipPath>
<clipPath id="clip1_6_615">
<rect width="355.4" height="266.8" fill="white" transform="translate(546 350)"/>
</clipPath>
</defs>
</svg>
