<svg width="1448" height="966" viewBox="0 0 1448 966" fill="none" xmlns="http://www.w3.org/2000/svg">
<g id="404-30">
<rect width="1448" height="966" rx="50" fill="#64FCD9"/>
<g id="Frame" clip-path="url(#clip0_6_721)">
<g id="Group">
<path id="Vector" d="M751.3 479.8C745.6 492.2 744.4 506.3 744.9 519.9C745.4 535.6 748 551.6 755.6 565.5C763.2 579.3 776.3 590.7 791.9 593.2C806.9 595.6 822.5 589.5 833.6 579.1C844.7 568.7 851.6 554.4 855.4 539.7C861.1 517.7 859.8 492.9 847.1 474.1C824 440 769 441.6 751.3 479.8Z" fill="white"/>
<path id="Vector_2" d="M850.2 540C846.9 552.9 840.8 565.4 831.1 574.6C821.4 583.7 807.7 589.1 794.5 587C782 585 771.2 576.4 764.4 565.6C770.9 572.8 779.4 578.1 788.9 579.6C802.1 581.7 815.8 576.4 825.5 567.2C835.2 558.1 841.3 545.6 844.6 532.7C849.4 514.1 848.5 493.2 838.5 476.9C840.1 478.6 841.6 480.5 843 482.6C854.1 498.9 855.2 520.7 850.2 540Z" fill="#E6E6E6"/>
<path id="Vector_3" d="M798.5 596C796.1 596 793.8 595.8 791.4 595.4C776.2 592.9 762 582.1 753.5 566.5C746.7 554.2 743.1 538.9 742.5 519.9C741.9 502.8 744 489.7 749.1 478.7C757.4 460.8 774.5 449.2 795 447.5C816.6 445.8 837.2 455.4 848.9 472.6C860.9 490.3 864.1 514.9 857.6 540.1C853.3 556.9 845.5 570.9 835.1 580.6C824.7 590.5 811.4 596 798.5 596ZM800.1 452.1C798.6 452.1 797 452.2 795.5 452.3C776.7 453.8 761 464.5 753.4 480.8C748.6 491.1 746.7 503.5 747.2 519.9C747.8 538.2 751.2 552.7 757.6 564.4C765.5 578.8 778.4 588.7 792.2 590.9C805.7 593.1 820.6 588.1 832 577.4C841.7 568.3 849 555 853.1 539.1C859.3 515.2 856.3 492 845.1 475.4C835.2 460.7 818.3 452.1 800.1 452.1Z" fill="#333333"/>
<path id="Vector_4" d="M612.5 474.9C604.5 488.4 601 504.2 599.5 519.9C597.5 540.6 600 564 615.5 577.9C633 593.5 662.3 590.2 679.7 574.4C697.1 558.6 703.8 533.7 702.6 510.2C701.8 494.3 697.5 478.2 687.4 465.9C664.5 438.1 629.6 446.2 612.5 474.9Z" fill="white"/>
<path id="Vector_5" d="M680.8 569.8C680.5 570.1 680.1 570.4 679.8 570.8C663.5 585.5 636 588.7 619.6 574C605 561 602.7 539.1 604.6 519.6C606 504.9 609.3 490.1 616.8 477.4C621.2 470 626.9 464.1 633.2 459.9C629.6 463.3 626.4 467.4 623.6 472C616.1 484.7 612.8 499.5 611.4 514.2C609.6 533.7 611.8 555.6 626.4 568.6C641 581.6 664.3 580.6 680.8 569.8Z" fill="#E6E6E6"/>
<path id="Vector_6" d="M644.2 590.5C633 590.5 622.1 586.9 614 579.6C596.9 564.3 595.4 538.6 597.2 519.6C599 500.8 603.3 485.7 610.5 473.6C619.9 457.8 634.9 447.6 650.7 446.4C665.1 445.3 678.8 451.7 689.3 464.3C698.6 475.7 704.1 491.5 705 510C706.4 537.1 697.8 561.1 681.3 576C670.8 585.7 657.2 590.5 644.2 590.5ZM614.5 476.1C607.7 487.6 603.5 502 601.8 520.1C600.1 538 601.4 562.2 617 576.1C634.3 591.5 662.5 586.8 678.1 572.7C693.5 558.8 701.6 536.1 700.2 510.4C699.6 498.2 696.5 480.8 685.5 467.4C676.2 456 663.9 450.2 651 451.2C636.8 452.3 623.1 461.6 614.5 476.1Z" fill="#333333"/>
<path id="Vector_7" d="M661.4 531C663.9 532.5 667.3 532.4 669.8 530.8C676 527 671.2 518.5 665.1 518.4C658.2 518.3 655.4 527.4 661.4 531Z" fill="#333333"/>
<path id="Vector_8" d="M770.6 529.7C772.5 530.9 775.1 530.8 777.1 529.6C781.9 526.7 778.2 520.1 773.4 520C768.2 519.9 766 526.9 770.6 529.7Z" fill="#333333"/>
<path id="Vector_9" d="M696.5 322C698.1 327.6 699.4 333.3 700.4 339C702.2 348.7 696.7 358.3 687.4 361.7C674.2 366.6 661.2 372.1 647.6 376.2C634.2 380.2 620.5 384.4 608.9 392.2C597.3 400 588 412.3 587 426.3C577 410.4 582.9 389 596.2 375.7C609.5 362.4 627.8 355.7 645.4 349.3C663.1 342.9 683.7 335.7 696.5 322Z" fill="#333333"/>
<path id="Vector_10" d="M751 322C748.8 329.8 747.1 337.7 746 345.7C745.1 351.8 748.8 357.7 754.6 359.7C769.8 365 784.4 371.5 799.8 376.2C813.2 380.2 826.9 384.4 838.5 392.2C850.1 400 859.6 412.3 860.5 426.3C870.5 410.4 864.6 389 851.4 375.7C838.1 362.4 819.8 355.7 802.2 349.3C784.5 342.9 763.9 335.7 751 322Z" fill="#333333"/>
<g id="Group_2">
<path id="Vector_11" d="M773.7 644.9H665.4C664.1 644.9 663.1 643.9 663.1 642.6C663.1 641.3 664.1 640.3 665.4 640.3H773.7C775 640.3 776 641.3 776 642.6C776 643.9 775 644.9 773.7 644.9Z" fill="#333333"/>
</g>
</g>
</g>
</g>
<defs>
<clipPath id="clip0_6_721">
<rect width="283.5" height="322.9" fill="white" transform="translate(582 322)"/>
</clipPath>
</defs>
</svg>
