<svg width="1448" height="966" viewBox="0 0 1448 966" fill="none" xmlns="http://www.w3.org/2000/svg">
<g id="404-29">
<rect width="1448" height="966" rx="50" fill="#DBAEFF"/>
<g id="Frame" clip-path="url(#clip0_6_682)">
<g id="Group">
<path id="Vector" d="M869.9 485.2C867.4 490.1 864.3 494.7 860.5 498.7C850.5 509.4 836.4 516.4 821.7 517.3C801.6 518.7 781.1 508.8 769.7 492.2C758.3 475.6 756.3 453 764.7 434.6C781.6 397.8 830.3 390.6 858 416.9C861.2 419.8 864.1 423.3 866.7 427.2C877.7 444.3 879 467.1 869.9 485.2Z" fill="white"/>
<path id="Vector_2" d="M853.2 497.6C844.5 505.5 833.2 510.7 821.4 511.5C803.5 512.7 785.3 503.9 775.1 489.1C764.9 474.3 763.2 454.1 770.7 437.8C775.1 428.2 781.9 420.9 789.9 415.9C785.2 420.2 781.3 425.6 778.4 431.9C770.9 448.2 772.6 468.4 782.8 483.2C793 498 811.2 506.8 829.1 505.6C837.6 505 845.9 502.2 853.2 497.6Z" fill="#E6E6E6"/>
<path id="Vector_3" d="M817.9 519.8C798.3 519.8 778.9 509.8 767.7 493.6C755.8 476.3 753.8 452.9 762.5 433.7C770.6 416 786.4 403.8 805.8 400C825.4 396.2 845.5 401.9 859.5 415.2C862.8 418.2 865.8 421.8 868.5 426C880 443.7 881.3 467.3 871.9 486.2C869.3 491.4 866 496.1 862.1 500.2C851.5 511.5 836.8 518.5 821.8 519.6C820.5 519.8 819.2 519.8 817.9 519.8ZM817.8 403.6C814.1 403.6 810.4 403.9 806.7 404.7C788.8 408.1 774.2 419.4 766.7 435.7C758.6 453.3 760.5 475 771.5 490.9C782.5 506.9 802.1 516.3 821.4 515C835.3 514.1 848.9 507.5 858.7 497.1C862.3 493.3 865.4 488.9 867.8 484.2C876.5 466.8 875.3 445 864.7 428.6C862.2 424.8 859.4 421.5 856.4 418.7C846.1 408.9 832.2 403.6 817.8 403.6Z" fill="#333333"/>
<path id="Vector_4" d="M684.1 487C682.3 489.1 680.3 491.1 678.1 492.7C669.8 499.1 659.1 502.2 648.5 503.2C631.5 504.8 613.3 501.3 600 490.6C590 482.6 583.3 470 582.8 457.4C582.6 453.1 583.2 448.9 584.5 444.8C586.7 438.2 595.5 437.8 602.5 437.5C632.4 436.1 662.9 433.6 692.7 432.2C693.2 436.7 693.6 441.2 693.9 445.8C694.8 460.7 693.4 475.7 684.1 487Z" fill="white"/>
<path id="Vector_5" d="M694 445.8C656.6 445.6 618.4 445.6 582.9 457.4C582.7 453.1 583.3 448.9 584.6 444.8C586.8 438.2 595.6 437.8 602.6 437.5C632.5 436.1 663 433.6 692.8 432.2C693.3 436.6 693.8 441.2 694 445.8Z" fill="#E6E6E6"/>
<path id="Vector_6" d="M640.8 505.9C624.5 505.9 609.5 501.1 598.6 492.4C583.7 480.4 577 460.5 582.4 444C585.1 435.9 595.1 435.4 602.4 435H602.5C617.5 434.3 632.8 433.3 647.7 432.4C662.5 431.4 677.8 430.5 692.8 429.8C693.4 429.8 694.1 430 694.5 430.4C694.9 430.8 695.2 431.4 695.2 432C697.4 452.2 698.5 473.2 686 488.4C684 490.8 681.8 492.8 679.6 494.5C669.8 502 657.5 504.6 648.9 505.5C646.1 505.8 643.4 505.9 640.8 505.9ZM690.7 434.6C676.5 435.3 662 436.2 647.9 437.1C633 438.1 617.7 439 602.7 439.7H602.6C596.3 440 588.5 440.4 586.9 445.4C582.1 460.1 588.2 477.9 601.6 488.7C613.3 498.1 630.4 502.5 648.4 500.8C656.4 500 667.8 497.6 676.8 490.7C678.8 489.2 680.7 487.4 682.5 485.3C693.3 472.2 692.7 453.2 690.7 434.6Z" fill="#333333"/>
<path id="Vector_7" d="M661.9 638.5C661.3 638.5 660.7 638.3 660.3 637.8C659.4 636.9 659.3 635.4 660.2 634.5C679.1 614.9 698.7 594.6 723.3 581.3C739 572.9 753.3 569.9 765.7 572.5C779.8 575.4 794.2 588.6 792.8 604.7C792.7 606 791.5 606.9 790.3 606.8C789 606.7 788.1 605.6 788.2 604.3C789.4 590.8 777 579.6 764.8 577.1C753.5 574.7 740.2 577.5 725.5 585.5C701.5 598.4 682.2 618.4 663.5 637.8C663.1 638.2 662.5 638.5 661.9 638.5Z" fill="#333333"/>
<path id="Vector_8" d="M869.9 485.2C867.4 490.1 864.3 494.7 860.5 498.7C851.1 495 843.5 486.3 839.7 476.7C834.2 462.8 835.3 446.5 842.7 433.6C846.5 427 851.9 420.8 858 417C861.2 419.9 864.1 423.4 866.7 427.3C877.7 444.3 879 467.1 869.9 485.2Z" fill="#333333"/>
<path id="Vector_9" d="M684.1 487C682.3 489.1 680.3 491.1 678.1 492.7C670.5 488 664.7 477.4 663.6 469.9C661.4 455.7 669.7 440.5 682.8 434.6C686 433.2 689.4 432.3 692.9 432.2C694.9 451.1 696.3 472.3 684.1 487Z" fill="#333333"/>
<path id="Vector_10" d="M664.6 491.2C655.4 496.6 644 499.1 632.9 497.9C616 496.1 600.1 485.9 592.6 471.8C585.1 457.8 586.3 440.5 595.6 427.9C601.1 420.5 608.4 415.4 616.7 412.5C611.7 415.4 607.3 419.3 603.7 424.2C594.4 436.8 593.2 454.1 600.7 468.1C608.2 482.1 624.1 492.4 641 494.2C649 495 657.2 493.9 664.6 491.2Z" fill="#E6E6E6"/>
<path id="Vector_11" d="M539 463.8C562.3 448.2 590.2 439.7 618.2 439.6C632.2 439.6 646.2 441.6 660.2 441C674.2 440.4 688.7 436.8 698.9 427.1C709.1 417.5 713.4 400.8 705.8 389C687.7 401.9 663.5 405.3 641.2 406C618.9 406.7 595.7 406.6 575.7 416.4C557.1 425.4 544.2 443.8 539 463.8Z" fill="#333333"/>
<path id="Vector_12" d="M909.7 402.8C886.4 387.2 858.5 378.7 830.5 378.6C816.5 378.6 802.5 380.6 788.5 380C774.5 379.4 760 375.8 749.8 366.1C739.6 356.5 735.3 339.8 742.9 328C761 340.9 785.2 344.3 807.5 345C829.8 345.7 853 345.6 873 355.4C891.6 364.4 904.5 382.8 909.7 402.8Z" fill="#333333"/>
<g id="Group_2">
<path id="Vector_13" d="M672.1 470.4H664.5C660.9 470.4 657.9 467.4 657.9 463.8C657.9 460.2 660.9 457.2 664.5 457.2H672.1C675.7 457.2 678.7 460.2 678.7 463.8C678.7 467.5 675.8 470.4 672.1 470.4Z" fill="white"/>
</g>
<g id="Group_3">
<path id="Vector_14" d="M844.3 469H836.7C833.1 469 830.1 466 830.1 462.4C830.1 458.8 833.1 455.8 836.7 455.8H844.3C847.9 455.8 850.9 458.8 850.9 462.4C850.9 466.1 848 469 844.3 469Z" fill="white"/>
</g>
</g>
</g>
</g>
<defs>
<clipPath id="clip0_6_682">
<rect width="370.7" height="310.5" fill="white" transform="translate(539 328)"/>
</clipPath>
</defs>
</svg>
